<?xml version="1.0" standalone="no"?>
<!DOCTYPE svg PUBLIC "-//W3C//DTD SVG 20010904//EN"
 "http://www.w3.org/TR/2001/REC-SVG-20010904/DTD/svg10.dtd">
<svg version="1.0" xmlns="http://www.w3.org/2000/svg"
 width="445.000000pt" height="445.000000pt" viewBox="0 0 445.000000 445.000000"
 preserveAspectRatio="xMidYMid meet">

<g transform="translate(0.000000,445.000000) scale(0.100000,-0.100000)"
fill="#000000" stroke="none">
<path d="M961 4135 c-79 -18 -155 -42 -201 -66 -82 -41 -179 -169 -211 -276
-16 -56 -42 -79 -122 -108 -99 -35 -150 -70 -237 -157 -132 -131 -195 -270
-187 -411 3 -67 8 -82 33 -115 46 -57 123 -92 203 -92 36 0 84 5 106 12 22 6
43 11 48 10 4 -1 7 2 7 7 0 5 14 14 31 21 38 16 39 15 74 -95 33 -106 44 -119
90 -112 34 6 80 37 156 107 16 14 82 54 147 88 135 70 224 95 402 112 189 17
177 8 214 155 l22 89 39 8 c87 18 164 118 191 248 41 197 -80 410 -289 511
-149 71 -360 97 -516 64z m388 -79 c47 -25 180 -160 225 -229 89 -137 109
-243 57 -314 -29 -40 -80 -83 -99 -83 -6 0 -16 15 -22 34 -6 19 -17 40 -25 46
-12 10 -15 6 -21 -17 -3 -15 -12 -53 -19 -83 -7 -30 -16 -84 -20 -120 -7 -62
-27 -120 -43 -120 -4 -1 -50 -2 -102 -4 -120 -4 -227 -37 -370 -114 -58 -32
-109 -59 -115 -61 -5 -2 -45 -30 -88 -63 -43 -32 -79 -58 -81 -58 -7 0 -106
137 -106 147 0 5 13 19 30 31 34 26 70 84 116 189 39 92 72 129 152 171 85 45
170 65 265 60 90 -3 110 10 55 38 -54 28 -156 22 -263 -16 -49 -18 -102 -38
-117 -46 -25 -13 -27 -12 -37 18 -7 18 -15 28 -20 22 -4 -5 -24 -51 -45 -103
-50 -129 -115 -216 -227 -305 -71 -56 -204 -97 -264 -82 -54 14 -81 106 -54
187 29 85 256 388 280 373 5 -3 9 -1 9 5 0 13 117 89 225 146 99 51 153 89
144 99 -4 4 -41 -1 -82 -12 -94 -23 -93 -18 26 94 95 90 194 146 309 175 96
24 276 22 327 -5z"/>
<path d="M2148 4089 c-54 -28 -51 -21 -153 -374 -21 -71 -53 -182 -72 -245
-76 -250 -85 -292 -74 -331 17 -57 46 -85 121 -120 39 -17 70 -34 70 -36 0 -2
-16 -39 -36 -83 -29 -63 -42 -81 -68 -91 -44 -19 -61 -42 -97 -134 -38 -97
-98 -217 -113 -227 -6 -4 -7 -8 -3 -8 5 0 0 -15 -11 -32 -11 -18 -50 -91 -87
-163 -38 -71 -72 -132 -77 -133 -4 -2 -6 -7 -3 -12 3 -5 -2 -16 -11 -24 -8 -9
-13 -16 -10 -16 3 0 -22 -54 -54 -120 -33 -66 -60 -124 -60 -129 0 -13 -52
-136 -93 -221 -20 -41 -73 -127 -116 -190 -44 -63 -110 -159 -147 -214 -131
-191 -299 -336 -390 -336 -43 0 -87 38 -103 89 -19 66 -31 336 -21 461 18 197
65 496 96 610 53 192 208 530 273 597 14 14 19 22 11 18 -27 -16 50 73 111
129 33 29 88 69 122 87 56 30 71 33 167 37 93 4 112 2 157 -18 69 -29 98 -62
97 -108 -3 -85 -209 -499 -290 -579 -8 -8 -14 -17 -14 -21 -1 -4 -18 -27 -40
-51 l-39 -45 5 125 c5 110 3 128 -14 159 -15 28 -28 37 -61 44 -68 15 -113 -4
-144 -62 -55 -100 -76 -286 -43 -367 22 -54 73 -87 142 -93 80 -7 146 30 259
143 72 73 103 113 154 205 35 63 85 149 109 190 93 154 130 269 118 363 -34
252 -342 343 -688 202 -32 -13 -58 -21 -58 -17 0 4 -4 2 -8 -4 -4 -6 -23 -19
-42 -29 -104 -53 -218 -143 -322 -251 -166 -176 -283 -409 -386 -771 -91 -316
-113 -682 -53 -870 32 -98 91 -204 144 -254 62 -60 184 -89 283 -69 204 42
374 192 549 485 26 44 53 83 59 87 6 4 8 8 3 8 -8 0 19 46 42 70 12 12 13 11
8 -5 -3 -11 -9 -33 -13 -50 -4 -16 -12 -39 -18 -50 -5 -11 -11 -22 -11 -25 0
-3 -7 -26 -14 -53 -18 -62 -10 -161 17 -214 36 -71 125 -80 216 -23 60 39 89
81 121 179 52 164 247 593 279 613 6 4 8 8 4 8 -10 0 65 122 104 171 34 43 58
57 53 31 -7 -35 -126 -285 -137 -290 -5 -2 -8 -12 -8 -22 0 -10 -6 -25 -12
-32 -7 -7 -14 -20 -16 -28 -2 -8 -11 -26 -20 -40 -9 -14 -17 -27 -17 -31 0
-14 -80 -175 -89 -181 -6 -4 -8 -8 -3 -8 4 0 -1 -17 -12 -38 -54 -106 -122
-367 -136 -517 -3 -38 -11 -112 -16 -163 -15 -130 -7 -164 40 -191 47 -26 74
-26 126 -2 109 52 210 221 314 526 43 124 93 225 113 225 4 0 33 -25 65 -55
32 -31 83 -68 113 -83 47 -23 67 -27 140 -26 47 0 112 8 145 17 32 9 60 15 61
14 1 -1 -13 -57 -31 -124 -55 -198 -61 -271 -43 -460 1 -7 6 -13 11 -13 6 0 8
-3 4 -6 -11 -12 56 -74 99 -90 58 -22 143 -15 214 18 117 54 205 176 285 393
18 50 58 153 90 230 58 142 107 284 120 343 9 45 38 60 131 72 98 12 164 33
230 72 55 33 78 67 94 143 14 64 5 118 -27 149 -30 31 -67 33 -118 9 -32 -15
-38 -25 -60 -95 -14 -44 -25 -86 -25 -94 0 -24 -58 -74 -86 -74 -15 0 -57 16
-96 36 -68 36 -70 37 -123 25 -39 -9 -61 -21 -80 -42 -27 -32 -32 -49 -15 -49
18 0 50 -82 50 -125 0 -22 -5 -59 -10 -83 -11 -46 -106 -279 -122 -299 -6 -7
-8 -13 -5 -13 11 0 -74 -235 -110 -303 -20 -37 -53 -87 -75 -110 l-38 -42 6
50 c9 77 42 209 65 262 36 83 169 492 200 618 52 205 111 321 252 493 61 74
195 255 247 334 14 21 28 38 33 38 4 0 7 5 7 10 0 6 18 36 39 68 136 200 184
304 184 402 1 74 -16 114 -63 153 -40 34 -82 41 -198 34 -165 -10 -242 -65
-375 -267 -43 -66 -168 -308 -173 -335 -1 -6 -11 -33 -22 -60 -12 -28 -36 -91
-54 -141 l-33 -90 -15 44 c-28 83 -92 97 -305 67 -75 -11 -127 -24 -169 -45
-72 -34 -166 -120 -223 -205 -36 -54 -133 -236 -139 -260 -1 -5 -13 -39 -27
-75 -15 -40 -29 -105 -35 -166 -8 -76 -18 -117 -43 -174 -18 -41 -38 -78 -44
-82 -5 -4 -6 -8 -2 -8 7 0 -110 -229 -123 -240 -3 -3 -14 -24 -24 -46 -10 -23
-27 -54 -38 -70 l-19 -29 6 44 c4 24 32 125 62 225 30 99 74 249 98 331 59
199 103 329 155 450 55 128 70 179 70 237 0 39 -4 50 -27 68 -70 55 -205 -15
-317 -163 -43 -58 -106 -123 -106 -111 0 19 42 114 98 219 29 55 69 134 90
175 20 41 42 78 47 82 6 4 7 8 3 8 -3 0 12 42 34 93 97 222 112 276 94 334 -4
12 7 48 29 96 20 42 37 77 39 77 2 0 33 -13 69 -30 76 -34 121 -37 173 -13 36
17 93 96 269 373 26 41 51 77 55 80 4 3 15 19 24 37 16 32 75 124 85 133 7 5
15 19 62 98 27 46 31 61 27 105 -8 92 -16 98 -233 197 -27 13 -108 50 -180 83
-309 142 -316 144 -387 106z m132 -288 c0 -33 -189 -644 -204 -659 -12 -13
-18 -13 -30 -2 -21 17 -20 28 9 124 13 44 56 187 94 316 70 235 88 273 118
249 7 -6 13 -19 13 -28z m243 7 c8 -11 -31 -105 -153 -371 -90 -196 -170 -359
-178 -362 -23 -8 -44 15 -37 42 3 13 26 66 50 119 25 53 45 100 45 105 0 5 5
9 11 9 5 0 7 5 4 10 -3 6 -2 10 3 10 5 0 9 6 9 13 0 6 21 56 47 110 25 55 46
100 46 102 0 11 105 222 114 227 14 10 27 5 39 -14z m175 -190 c2 -9 -15 -43
-37 -75 -47 -69 -134 -206 -134 -213 -1 -3 -5 -9 -10 -15 -5 -5 -46 -68 -92
-140 -46 -71 -89 -136 -95 -142 -16 -18 -38 -16 -49 5 -8 15 7 44 74 148 47
71 90 139 97 151 34 59 172 269 182 275 6 4 7 8 3 8 -5 0 -5 5 -2 11 11 16 59
6 63 -13z m1049 -884 c22 -22 25 -31 19 -70 -18 -131 -160 -378 -360 -628 -44
-55 -82 -94 -84 -88 -8 26 144 443 223 609 54 114 124 203 159 203 9 0 29 -12
43 -26z m-892 -776 c-20 -97 -114 -249 -219 -353 -78 -78 -176 -144 -176 -120
0 7 5 17 10 20 6 4 8 10 6 13 -5 9 55 120 108 199 95 141 222 273 264 273 10
0 12 -8 7 -32z m30 -305 c-73 -214 -139 -376 -155 -381 -5 -2 -10 -9 -10 -16
0 -19 -113 -120 -155 -140 -79 -38 -135 11 -135 116 0 89 23 134 84 165 112
57 189 134 346 347 46 63 86 113 88 111 2 -2 -26 -93 -63 -202z"/>
<path d="M3718 3278 c3 -110 -4 -179 -30 -276 -2 -9 12 -15 47 -18 157 -13
262 -103 267 -228 0 -25 5 -46 9 -46 4 0 27 13 51 29 79 53 207 112 293 134
47 12 85 25 85 30 0 29 -222 129 -249 112 -19 -11 -20 12 -2 41 27 45 53 153
49 209 l-3 50 -60 -1 c-74 -1 -151 -34 -212 -91 l-42 -39 -15 41 c-9 22 -33
59 -54 81 -38 42 -109 94 -127 94 -7 0 -10 -40 -7 -122z"/>
</g>
</svg>
